<svg xmlns="http://www.w3.org/2000/svg" width="1080" height="760" viewBox="0 0 1080 760">
  <defs><linearGradient id="sky" x1="0" y1="0" x2="0" y2="1"><stop stop-color="#73b8d6"/><stop offset="1" stop-color="#e4f1df"/></linearGradient></defs>
  <rect width="1080" height="760" rx="56" fill="url(#sky)"/><circle cx="840" cy="134" r="72" fill="#fff4b8"/><g fill="#fff" opacity=".72"><circle cx="164" cy="145" r="18"/><circle cx="204" cy="136" r="27"/><circle cx="242" cy="150" r="16"/><circle cx="644" cy="102" r="12"/><circle cx="670" cy="94" r="20"/></g>
  <path d="M0 552Q120 470 240 552T480 552T720 552T960 552T1080 552V760H0Z" fill="#a9d58d"/><path d="M650 518V300h65v-95h62v95h64v218" fill="#6e7594"/><path d="M625 302h178l-89-96z" fill="#554f73"/><rect x="704" y="337" width="42" height="80" rx="20" fill="#f6df8e"/><path d="M560 580c30-214 224-220 276 0" fill="#f3bd75"/>
  <g stroke="#3d5266" stroke-width="12" stroke-linejoin="round"><circle cx="426" cy="408" r="94" fill="#ffd6ad"/><path d="M336 397q18-118 104-122 94 7 86 124-79-60-190-2" fill="#4c5d95"/><path d="M356 502q72 67 148 0l66 143H289z" fill="#4b94ba"/><path d="M350 574l-62 114 99 25" fill="#4b94ba"/><path d="M514 563l84 101-92 42" fill="#4b94ba"/><circle cx="513" cy="511" r="47" fill="none" stroke="#f5cb5d"/><path d="M480 544l-54 48" fill="none" stroke="#f5cb5d"/></g>
  <g stroke="#3d5266" stroke-width="10"><ellipse cx="708" cy="592" rx="96" ry="70" fill="#d8e6ee"/><path d="M626 573l-40-78 73 41M785 573l42-78-76 40" fill="#c3d5e2"/><circle cx="674" cy="587" r="9" fill="#3d5266"/><circle cx="744" cy="587" r="9" fill="#3d5266"/><path d="M698 619q12 12 24 0" fill="none"/></g>
  <g fill="#fff6b5" stroke="#d39f3c" stroke-width="7"><path d="M198 315l12 26 28 3-21 19 6 28-25-14-25 14 6-28-21-19 28-3z"/><path d="M902 416l10 22 24 3-18 17 5 24-21-12-22 12 5-24-18-17 24-3z"/></g>
</svg>
